<svg width="124" height="40" viewBox="0 0 124 40" fill="none" xmlns="http://www.w3.org/2000/svg">
<circle cx="20" cy="20" r="20" fill="#FF7235"/>
<path d="M18.176 26H14.384L18.728 19.904L14.648 13.832H18.536L20.504 17.456L22.688 13.832H26.528L22.16 19.928L26.216 26H22.4L20.36 22.352L18.176 26Z" fill="white"/>
<path d="M56.807 15.098C57.221 14.5153 57.7883 14.0323 58.509 13.649C59.245 13.2503 60.0807 13.051 61.016 13.051C62.1047 13.051 63.086 13.3193 63.96 13.856C64.8493 14.3927 65.547 15.1593 66.053 16.156C66.5743 17.1373 66.835 18.2797 66.835 19.583C66.835 20.8863 66.5743 22.044 66.053 23.056C65.547 24.0527 64.8493 24.827 63.96 25.379C63.086 25.931 62.1047 26.207 61.016 26.207C60.0807 26.207 59.2527 26.0153 58.532 25.632C57.8267 25.2487 57.2517 24.7657 56.807 24.183V32.072H53.587V13.258H56.807V15.098ZM63.546 19.583C63.546 18.8163 63.385 18.157 63.063 17.605C62.7563 17.0377 62.3423 16.6083 61.821 16.317C61.315 16.0257 60.763 15.88 60.165 15.88C59.5823 15.88 59.0303 16.0333 58.509 16.34C58.003 16.6313 57.589 17.0607 57.267 17.628C56.9603 18.1953 56.807 18.8623 56.807 19.629C56.807 20.3957 56.9603 21.0627 57.267 21.63C57.589 22.1973 58.003 22.6343 58.509 22.941C59.0303 23.2323 59.5823 23.378 60.165 23.378C60.763 23.378 61.315 23.2247 61.821 22.918C62.3423 22.6113 62.7563 22.1743 63.063 21.607C63.385 21.0397 63.546 20.365 63.546 19.583ZM81.0199 19.353C81.0199 19.813 80.9892 20.227 80.9279 20.595H71.6129C71.6896 21.515 72.0116 22.2357 72.5789 22.757C73.1462 23.2783 73.8439 23.539 74.6719 23.539C75.8679 23.539 76.7189 23.0253 77.2249 21.998H80.6979C80.3299 23.2247 79.6246 24.2367 78.5819 25.034C77.5392 25.816 76.2589 26.207 74.7409 26.207C73.5142 26.207 72.4102 25.9387 71.4289 25.402C70.4629 24.85 69.7039 24.0757 69.1519 23.079C68.6152 22.0823 68.3469 20.9323 68.3469 19.629C68.3469 18.3103 68.6152 17.1527 69.1519 16.156C69.6886 15.1593 70.4399 14.3927 71.4059 13.856C72.3719 13.3193 73.4836 13.051 74.7409 13.051C75.9522 13.051 77.0332 13.3117 77.9839 13.833C78.9499 14.3543 79.6936 15.098 80.2149 16.064C80.7516 17.0147 81.0199 18.111 81.0199 19.353ZM77.6849 18.433C77.6696 17.605 77.3706 16.9457 76.7879 16.455C76.2052 15.949 75.4922 15.696 74.6489 15.696C73.8516 15.696 73.1769 15.9413 72.6249 16.432C72.0882 16.9073 71.7586 17.5743 71.6359 18.433H77.6849ZM90.4312 13.074C91.9492 13.074 93.1759 13.557 94.1112 14.523C95.0465 15.4737 95.5142 16.8077 95.5142 18.525V26H92.2942V18.962C92.2942 17.95 92.0412 17.1757 91.5352 16.639C91.0292 16.087 90.3392 15.811 89.4652 15.811C88.5759 15.811 87.8705 16.087 87.3492 16.639C86.8432 17.1757 86.5902 17.95 86.5902 18.962V26H83.3702V13.258H86.5902V14.845C87.0195 14.293 87.5639 13.8637 88.2232 13.557C88.8979 13.235 89.6339 13.074 90.4312 13.074ZM103.452 26.207C102.41 26.207 101.474 26.023 100.646 25.655C99.8183 25.2717 99.1589 24.758 98.6683 24.114C98.1929 23.47 97.9323 22.757 97.8863 21.975H101.129C101.191 22.4657 101.428 22.872 101.842 23.194C102.272 23.516 102.801 23.677 103.429 23.677C104.043 23.677 104.518 23.5543 104.855 23.309C105.208 23.0637 105.384 22.7493 105.384 22.366C105.384 21.952 105.17 21.6453 104.74 21.446C104.326 21.2313 103.659 21.0013 102.739 20.756C101.789 20.526 101.007 20.2883 100.393 20.043C99.7953 19.7977 99.2739 19.422 98.8293 18.916C98.3999 18.41 98.1853 17.7277 98.1853 16.869C98.1853 16.1637 98.3846 15.5197 98.7833 14.937C99.1973 14.3543 99.7799 13.8943 100.531 13.557C101.298 13.2197 102.195 13.051 103.222 13.051C104.74 13.051 105.952 13.4343 106.856 14.201C107.761 14.9523 108.259 15.972 108.351 17.26H105.269C105.223 16.754 105.009 16.3553 104.625 16.064C104.257 15.7573 103.759 15.604 103.13 15.604C102.548 15.604 102.095 15.7113 101.773 15.926C101.467 16.1407 101.313 16.4397 101.313 16.823C101.313 17.2523 101.528 17.582 101.957 17.812C102.387 18.0267 103.054 18.249 103.958 18.479C104.878 18.709 105.637 18.9467 106.235 19.192C106.833 19.4373 107.347 19.8207 107.776 20.342C108.221 20.848 108.451 21.5227 108.466 22.366C108.466 23.102 108.259 23.7613 107.845 24.344C107.447 24.9267 106.864 25.3867 106.097 25.724C105.346 26.046 104.464 26.207 103.452 26.207ZM122.954 19.353C122.954 19.813 122.924 20.227 122.862 20.595H113.547C113.624 21.515 113.946 22.2357 114.513 22.757C115.081 23.2783 115.778 23.539 116.606 23.539C117.802 23.539 118.653 23.0253 119.159 21.998H122.632C122.264 23.2247 121.559 24.2367 120.516 25.034C119.474 25.816 118.193 26.207 116.675 26.207C115.449 26.207 114.345 25.9387 113.363 25.402C112.397 24.85 111.638 24.0757 111.086 23.079C110.55 22.0823 110.281 20.9323 110.281 19.629C110.281 18.3103 110.55 17.1527 111.086 16.156C111.623 15.1593 112.374 14.3927 113.34 13.856C114.306 13.3193 115.418 13.051 116.675 13.051C117.887 13.051 118.968 13.3117 119.918 13.833C120.884 14.3543 121.628 15.098 122.149 16.064C122.686 17.0147 122.954 18.111 122.954 19.353ZM119.619 18.433C119.604 17.605 119.305 16.9457 118.722 16.455C118.14 15.949 117.427 15.696 116.583 15.696C115.786 15.696 115.111 15.9413 114.559 16.432C114.023 16.9073 113.693 17.5743 113.57 18.433H119.619Z" fill="white"/>
</svg>
